<svg width="445" height="176" viewBox="0 0 445 176" fill="none" xmlns="http://www.w3.org/2000/svg">
<path d="M83.6973 64.4859C83.6973 70.1343 82.076 75.1551 78.8334 79.5483C75.6954 83.9415 71.093 87.3933 65.0262 89.9037C59.064 92.4141 51.6897 93.6693 42.9033 93.6693C35.6859 93.6693 28.5731 92.7802 21.5649 91.002C14.6613 89.2238 9.0652 86.8703 4.7766 83.9415L13.4061 65.5842C17.4855 68.3038 22.2448 70.4481 27.684 72.0171C33.1232 73.5861 38.667 74.3706 44.3154 74.3706C49.8592 74.3706 53.7294 73.5861 55.926 72.0171C58.1226 70.4481 59.2209 68.6176 59.2209 66.5256C59.2209 64.4336 58.2272 62.76 56.2398 61.5048C54.357 60.2496 51.8466 59.2559 48.7086 58.5237C45.6752 57.6869 42.2757 56.9024 38.5101 56.1702C34.8491 55.438 31.1358 54.4966 27.3702 53.346C23.7092 52.1954 20.3097 50.6787 17.1717 48.7959C14.1383 46.8085 11.6279 44.2458 9.6405 41.1078C7.7577 37.8652 6.8163 33.8381 6.8163 29.0265C6.8163 23.3781 8.4376 18.4096 11.6802 14.121C15.0274 9.7278 19.7344 6.276 25.8012 3.7656C31.868 1.2552 39.0854 0 47.4534 0C53.1018 0 58.8548 0.627601 64.7124 1.8828C70.57 3.138 75.6954 5.1254 80.0886 7.845L72.0867 26.2023C68.0073 23.6919 63.771 21.9137 59.3778 20.8677C55.0892 19.8217 50.8006 19.2987 46.512 19.2987C41.282 19.2987 37.4641 20.0832 35.0583 21.6522C32.6525 23.2212 31.4496 25.2086 31.4496 27.6144C31.4496 29.7064 32.391 31.38 34.2738 32.6352C36.1566 33.8904 38.6147 34.9364 41.6481 35.7732C44.7861 36.5054 48.2379 37.2376 52.0035 37.9698C55.7691 38.702 59.4824 39.6434 63.1434 40.794C66.8044 41.84 70.2039 43.3044 73.3419 45.1872C76.4799 47.07 78.9903 49.5804 80.8731 52.7184C82.7559 55.7518 83.6973 59.6743 83.6973 64.4859Z" fill="black"/>
<path d="M99.353 91.9434V1.7259H124.143V91.9434H99.353Z" fill="black"/>
<path d="M170.044 37.1853H213.662V55.2288H170.044V37.1853ZM172.554 72.9585H220.722V91.9434H148.078V1.7259H218.997V20.7108H172.554V72.9585Z" fill="black"/>
<path d="M393.348 93.6693C383.62 93.6693 374.938 91.6819 367.303 87.7071C359.667 83.6277 353.652 78.0316 349.259 70.9188C344.866 63.806 342.669 55.7518 342.669 46.7562C342.669 37.7606 344.866 29.7587 349.259 22.7505C353.652 15.7423 359.667 10.1985 367.303 6.1191C374.938 2.0397 383.62 0 393.348 0C403.076 0 411.758 2.0397 419.393 6.1191C427.029 10.1985 433.044 15.7423 437.437 22.7505C441.83 29.7587 444.027 37.7606 444.027 46.7562C444.027 55.7518 441.83 63.806 437.437 70.9188C433.044 78.0316 427.029 83.6277 419.393 87.7071C411.758 91.6819 403.076 93.6693 393.348 93.6693ZM393.348 73.4292C398.369 73.4292 402.762 72.3309 406.528 70.1343C410.398 67.8331 413.431 64.6428 415.628 60.5634C417.824 56.484 418.923 51.9339 418.923 46.9131C418.923 41.6831 417.824 37.0807 415.628 33.1059C413.431 29.1311 410.398 25.9931 406.528 23.6919C402.762 21.3907 398.369 20.2401 393.348 20.2401C388.432 20.2401 384.039 21.3907 380.168 23.6919C376.298 25.9931 373.213 29.1311 370.911 33.1059C368.715 37.0807 367.616 41.6308 367.616 46.7562C367.616 51.8816 368.715 56.484 370.911 60.5634C373.213 64.6428 376.298 67.8331 380.168 70.1343C384.039 72.3309 388.432 73.4292 393.348 73.4292Z" fill="black"/>
<path d="M95.8972 175.987C90.0767 175.987 84.8572 174.785 80.2387 172.381C75.6835 169.914 72.0773 166.561 69.4201 162.322C66.7629 158.02 65.4343 153.148 65.4343 147.707C65.4343 142.203 66.7629 137.331 69.4201 133.092C72.0773 128.79 75.6835 125.437 80.2387 123.033C84.8572 120.566 90.0767 119.332 95.8972 119.332C101.022 119.332 105.514 120.123 109.373 121.704C113.296 123.223 116.649 125.754 119.432 129.296L109.753 138.122C107.918 135.908 105.893 134.263 103.679 133.187C101.465 132.112 99.0605 131.574 96.4666 131.574C93.3665 131.574 90.6144 132.27 88.2103 133.662C85.8062 134.99 83.9082 136.857 82.5163 139.261C81.1877 141.665 80.5234 144.48 80.5234 147.707C80.5234 150.87 81.1877 153.654 82.5163 156.058C83.9082 158.462 85.8062 160.36 88.2103 161.752C90.6144 163.081 93.3665 163.745 96.4666 163.745C99.0605 163.745 101.465 163.207 103.679 162.132C105.893 161.056 107.918 159.411 109.753 157.197L119.432 166.023C116.649 169.502 113.296 172.033 109.373 173.615C105.514 175.196 101.022 175.987 95.8972 175.987Z" fill="black"/>
<path d="M270.467 141.823H296.849V152.737H270.467V141.823ZM271.986 163.46H301.12V174.943H257.181V120.376H300.076V131.859H271.986V163.46Z" fill="black"/>
<path d="M312.045 174.943V120.376H324.572L347.158 157.102H341.085L363.196 120.376H375.818L376.008 174.943H361.963L361.868 141.728H363.956L347.253 169.154H340.515L323.243 141.728H325.996V174.943H312.045Z" fill="black"/>
<path d="M404.207 174.943V152.262L406.959 161.373L382.19 120.376H398.039L416.26 150.459H408.003L426.224 120.376H441.313L416.449 161.373L419.201 152.262V174.943H404.207Z" fill="black"/>
<path fill-rule="evenodd" clip-rule="evenodd" d="M238.786 1.7259V91.9434H263.105V42.1772V30.9093V6.43534L259.183 1.7259H238.786ZM263.105 6.44919V42.1772L304.684 91.9434H325.081V1.7259H300.761V51.6458L263.105 6.44919Z" fill="black"/>
<path fill-rule="evenodd" clip-rule="evenodd" d="M143.943 120.376L119.459 174.943H133.979L138.532 164.125L143.085 153.306L151.375 133.607L159.547 153.306H146.854L142.854 164.125H164.035L168.522 174.943H183.327L158.748 120.376H143.943Z" fill="black"/>
<path fill-rule="evenodd" clip-rule="evenodd" d="M189.806 120.376V174.943H204.8V163.176V132.143H215.049C218.402 132.143 221.281 132.745 223.685 133.947C226.153 135.149 228.051 136.92 229.379 139.261C230.708 141.539 231.372 144.354 231.372 147.707C231.372 150.997 230.708 153.812 229.379 156.153C228.051 158.431 226.153 160.171 223.685 161.373C221.281 162.575 218.402 163.176 215.049 163.176H208.854V174.943H215.524C221.787 174.943 227.228 173.836 231.847 171.622C236.528 169.408 240.135 166.276 242.665 162.227C245.259 158.114 246.556 153.275 246.556 147.707C246.556 142.076 245.259 137.236 242.665 133.187C240.135 129.075 236.528 125.912 231.847 123.697C227.228 121.483 221.787 120.376 215.524 120.376H189.806Z" fill="black"/>
<path fill-rule="evenodd" clip-rule="evenodd" d="M24.4842 120.376L0 174.943H14.5197L19.0726 164.125L23.6255 153.306L31.9158 133.607L40.0875 153.306H27.3545L23.3545 164.125H44.5754L49.0633 174.943H63.8677L39.2886 120.376H24.4842Z" fill="black"/>
</svg>
